<?xml version="1.0" encoding="UTF-8"?>
<svg width="477px" height="687px" viewBox="0 0 477 687" version="1.1" xmlns="http://www.w3.org/2000/svg" xmlns:xlink="http://www.w3.org/1999/xlink">
    <!-- Generator: Sketch 59.1 (86144) - https://sketch.com -->
    <title>LeonNL</title>
    <desc>Created with Sketch.</desc>
    <g id="Page-1" stroke="none" stroke-width="1" fill="none" fill-rule="evenodd">
        <g id="LeonNL" transform="translate(0.000000, -11.000000)" fill="#FFFFFF">
            <g id="Group" transform="translate(106.000000, 0.000000)">
                <rect id="Rectangle" x="0" y="49.132175" width="202" height="57" rx="10"></rect>
                <path d="M108.148722,14.2448501 L170,67.132175 L170,67.132175 L32,67.132175 L93.8512783,14.2448501 C97.9673123,10.7253428 104.032688,10.7253428 108.148722,14.2448501 Z" id="Triangle"></path>
                <path d="M202,21.9674307 L202,69.2643501 L202,69.2643501 L121.872331,69.2643501 L185.467536,14.3959766 C189.649135,10.7881965 195.963674,11.2533684 199.571454,15.434967 C201.138104,17.2507936 202,19.5691774 202,21.9674307 Z" id="Triangle-Copy"></path>
                <path d="M80.1276694,21.9674307 L80.1276694,69.2643501 L80.1276694,69.2643501 L0,69.2643501 L63.5952057,14.3959766 C67.7768044,10.7881965 74.0913435,11.2533684 77.6991236,15.434967 C79.2657739,17.2507936 80.1276694,19.5691774 80.1276694,21.9674307 Z" id="Triangle-Copy-2" transform="translate(40.063835, 34.698263) scale(-1, 1) translate(-40.063835, -34.698263) "></path>
            </g>
            <path d="M374.520314,131.132175 C377.074796,131.132175 379.549641,132.021228 381.520168,133.646773 C386.125726,137.446032 386.847499,144.207514 383.201639,148.887655 L383.005716,149.132029 L358.281679,179.10314 L460.907413,219.380966 C470.349269,223.08664 476.603109,232.122287 476.770407,242.236545 L476.773849,242.652796 L476.773849,359.254977 C476.773849,367.155676 473.65756,374.730391 468.11364,380.34084 L467.763991,380.688921 L438.618713,409.230728 C433.31646,414.423195 426.230276,417.380899 418.822551,417.507041 L418.328243,417.511249 L368.409638,417.511249 C375.985916,424.348092 380.930767,428.909742 383.24419,431.1962 C390.69537,438.560527 392.420959,441.242691 392.420959,441.242691 C393.755639,443.288443 395.090318,445.334195 396.424997,447.379947 C399.736783,452.456142 402.552132,457.838388 404.832602,463.45211 L405.253913,464.507378 L406.142719,466.773049 C408.14641,471.880687 409.726349,477.144563 410.866541,482.511378 C412.891436,492.042442 413.903884,499.754851 413.903884,505.648606 C413.903884,534.005897 410.764784,531.220756 409.790851,535.383633 C404.955342,556.052009 394.25667,568.199074 384.459827,577.413401 C362.03294,598.506796 302.29107,637.826341 205.234217,695.372036 L202.281679,697.121424 L0.5,542.354971 L0.5,282.603677 C0.5,273.695263 1.69037412,264.826791 4.03952155,256.233692 C7.92400382,242.024393 11.6898939,231.125366 15.3371916,223.536611 C20.0197688,213.793801 29.621875,199.566272 44.1435102,180.854022 L44.7269994,180.10314 L58.6845302,167.787625 C62.4684325,164.448876 66.4992124,161.401705 70.7421796,158.672023 L71.7250768,158.047744 L80.5059249,152.542142 C82.6160979,151.219061 84.7942199,150.008064 87.0312207,148.914105 L87.9935138,148.452445 L99.7959922,142.898951 C106.142933,139.912485 112.789744,137.612929 119.623124,136.038774 L120.703613,135.796257 L129.72418,133.82477 C130.701667,133.611135 131.686739,133.434271 132.677316,133.294531 L133.421248,133.196693 L144.313468,131.867998 C147.884719,131.432357 151.476553,131.189798 155.073296,131.141274 L156.422274,131.132175 L374.520314,131.132175 Z M151.986303,190.141764 C150.383719,190.128216 148.781769,190.210994 147.189117,190.38965 L140.076296,191.187531 C136.612353,191.576099 133.188859,192.265781 129.844661,193.248751 L125.304943,194.583123 C123.660463,195.06649 122.048752,195.655059 120.479779,196.34519 L114.539201,198.95822 C112.360008,199.916763 110.30266,201.131294 108.410575,202.576182 L100.270287,208.792503 C99.7278664,209.206722 99.1997389,209.63933 98.6868263,210.089572 L93.1205411,214.975739 C90.1406012,217.591574 87.4273046,220.496365 85.0204497,223.647505 L75.4938352,236.120087 L65.6511912,254.847401 L59.2816788,282.475112 L59.2816788,515.715683 L205.471701,628.279654 L334.82452,547.517804 L339.930745,543.60236 C341.178694,542.645435 342.349468,541.591865 343.432243,540.451391 L344.738616,539.075404 C345.711621,538.05055 346.610995,536.958224 347.43002,535.806589 L349.059679,533.515116 C349.721732,532.584199 350.330074,531.616227 350.881733,530.615931 L351.867696,528.828131 C352.927467,526.906499 353.685992,524.833579 354.116772,522.681786 L354.579437,520.370729 C354.704296,519.747047 354.809288,519.119552 354.894254,518.489195 L355.285987,515.582979 C355.631083,513.022755 355.69349,510.432337 355.47208,507.858464 L355.064254,503.117498 C354.891989,501.114919 354.518904,499.134722 353.950624,497.206756 L352.239634,491.401991 C351.679412,489.501362 350.932266,487.660911 350.009145,485.907604 L344.691749,475.808145 L229.429808,375.985687 C228.268349,374.979806 227.185882,373.886185 226.191962,372.714475 L221.784095,367.518141 C219.283166,364.569852 217.375688,361.165949 216.166619,357.493728 L215.496844,355.459467 C214.538131,352.547635 214.031392,349.506057 213.994278,346.440682 L213.07802,270.763462 C213.059552,269.238122 213.157452,267.713594 213.370869,266.203144 L214.172714,260.528121 C214.71725,256.674192 216.006531,252.963052 217.968675,249.601612 L220.192332,245.792162 C221.185062,244.09147 222.342832,242.492655 223.648887,241.018855 L267.867076,191.121424 L151.986303,190.141764 Z M316.021457,226.125335 L271.848207,274.319117 L271.848207,333.780461 L302.794499,359.754808 L405.842413,359.754808 L418.281679,347.335859 L418.281679,265.8808 L316.021457,226.125335 Z" id="Combined-Shape" fill-rule="nonzero"></path>
        </g>
    </g>
</svg>
