<?xml version="1.0" encoding="utf-8"?>
<!-- Generator: Adobe Illustrator 25.2.1, SVG Export Plug-In . SVG Version: 6.00 Build 0)  -->
<svg version="1.1" id="Layer_1" xmlns="http://www.w3.org/2000/svg" xmlns:xlink="http://www.w3.org/1999/xlink" x="0px" y="0px"
	 viewBox="0 0 213 50" style="enable-background:new 0 0 213 50;" xml:space="preserve">
<style type="text/css">
	.st0{fill:#FFFFFF;}
</style>
<g id="Group_546-2_5_" transform="translate(155.000000, 10.000000)">
	<path id="Path_595-2_5_" class="st0" d="M-76.3,9.6h3.7l0.8,1.5c1.1-1.1,2.8-1.7,4.4-1.7c3.6,0,4.3,2.4,4.3,5.3v9.6h-4.5v-9.7
		c0-1.3-0.4-1.7-1.2-1.7c-1-0.1-2.1,0.3-2.8,1.1v10.1h-4.5L-76.3,9.6L-76.3,9.6z"/>
	<path id="Path_596-2_5_" class="st0" d="M-59.7,2.8h4.5v15.4c0,2,0.4,2.5,1.1,2.7c0,0,1.5,0.6,1.6,0.6v2.7H-56
		c-2.5,0-3.8-1.3-3.8-5.2L-59.7,2.8L-59.7,2.8z"/>
	<path id="Path_597-2_5_" class="st0" d="M-48.8,20.8c0-0.2,0-0.3,0.1-0.6c0.1-0.1,0.3-0.2,0.6-0.1h2.7c0.2,0,0.3,0,0.6,0.1
		c0.1,0.1,0.2,0.3,0.1,0.6v2.8c0,0.2-0.1,0.3-0.2,0.4c-0.1,0.1-0.3,0.2-0.4,0.2H-48c-0.2,0-0.3-0.1-0.4-0.2
		c-0.1-0.1-0.2-0.3-0.2-0.4v-2.8H-48.8z"/>
	<path id="Path_598-2_5_" class="st0" d="M-39.2,18.7c-1.2-0.8-1.6-2.6-1.6-4c0-3.5,1.8-5.2,5.2-5.2h9v2.6l-1.3,0.4
		c0.3,0.9,0.6,1.8,0.4,2.7c0,2.2-1,4.7-5.2,4.7h-3c-0.4,0-1.1,0-1.1,0.6s0.4,0.7,1.1,0.7h3.9c2.8,0,4.6,1.3,4.6,4.5v1.5
		c0,2.2-1.1,4.2-4.7,4.2h-4c-2.6,0-4.6-1.3-4.6-4.2v-1.7l1.3-1.1c-1.1-0.6-1.7-1.8-1.6-3C-40.8,20.2-40.2,19.1-39.2,18.7z
		 M-34.8,16.6h1.1c1.2,0,1.6-0.6,1.6-1.9s-0.6-1.7-1.6-1.7h-1.1c-1.3,0-1.5,0.8-1.5,1.7C-36.2,16-35.9,16.6-34.8,16.6z M-34.7,28.1
		h1.6c1.2,0,1.3-0.6,1.3-1.2V26c0-0.7-0.3-1.1-1.2-1.1h-3.1v1.9C-36.1,28-35.6,28.1-34.7,28.1z"/>
	<path id="Path_599-2_5_" class="st0" d="M-17,9.5c5.1,0,6.7,1.8,6.7,7.6c0,5.4-1.6,7.2-6.7,7.2s-6.7-2-6.7-7.2
		C-23.8,11.2-22,9.5-17,9.5z M-17,20.9c1.9,0,2.2-0.2,2.2-3.7c0-3.7-0.2-4.2-2.2-4.2s-2.2,0.4-2.2,4.2C-19.3,20.4-18.8,20.9-17,20.9
		z"/>
	<path id="Path_600-2_5_" class="st0" d="M-6.7,2.7h4.5v7.6c1.2-0.6,2.7-0.9,4-0.9c3.9,0,4.7,2.7,4.7,7.5s-1.2,7.3-4.7,7.3
		c-1.5,0-2.9-0.6-4-1.6L-3,24.1h-3.8L-6.7,2.7L-6.7,2.7z M0.5,20.5c1,0,1.6-0.7,1.6-3.8c0-3.5-0.6-3.9-1.6-3.9
		c-0.9,0-1.8,0.1-2.7,0.4v6.5C-1.4,20.3-0.5,20.7,0.5,20.5z"/>
	<path id="Path_601-2_5_" class="st0" d="M9.9,20.8c0-0.2,0-0.3,0.1-0.6c0.1-0.1,0.3-0.2,0.6-0.1h2.7c0.2,0,0.3,0,0.6,0.1
		c0.1,0.1,0.2,0.3,0.1,0.6v2.8c0,0.2-0.1,0.3-0.2,0.4c-0.1,0.1-0.3,0.2-0.4,0.2h-2.7c-0.2,0-0.3-0.1-0.4-0.2
		c-0.1-0.1-0.2-0.3-0.2-0.4v-2.8H9.9z"/>
	<path id="Path_602-2_5_" class="st0" d="M18.2,9.6h3.7l0.8,1.5c1.1-1.1,2.7-1.7,4.3-1.7c1.5-0.1,2.9,0.6,3.7,1.8
		c1.5-1.1,3.1-1.8,4.9-1.8c3.5,0,4.3,2.2,4.3,5.3v9.4h-4.5v-9.6c0-1.2-0.4-1.7-1.2-1.7c-1.1-0.1-2.1,0.2-2.9,1V24h-4.5v-9.6
		c0-1.2-0.4-1.7-1.3-1.7c-1-0.1-2.1,0.3-2.8,1.1v10.1h-4.5L18.2,9.6L18.2,9.6z"/>
	<polygon id="Path_603-2_5_" class="st0" points="47.7,16.8 42.8,9.6 48.1,9.6 50.4,13.6 52.6,9.6 58,9.6 53.1,16.9 57.9,24.1 
		52.7,24.1 50.5,20.3 48.2,24.1 42.9,24.1 	"/>
</g>
<polygon class="st0" points="58.4,0 58.4,25 58.4,50 60.9,50 60.9,25 60.9,0 "/>
<g>
	<path class="st0" d="M35.5,15h4.9v-0.8c0-1.1-0.9-2-2-2h-4.8V13C33.5,14.1,34.4,15,35.5,15z"/>
	<path class="st0" d="M39.9,21.9c0.2-0.4,0.4-0.9,0.4-1.3v-3.7h-2.9c-2,0-3.6,0.9-5.1,2.7l-0.1,0.2h-3.6c-0.2-0.3-0.5-0.6-0.8-0.9
		l-0.3-0.3h2.1c0.4,0,0.8-0.2,1.1-0.4l1.3-1.3c0.3-0.3,0.4-0.7,0.4-1.1v-5c0-0.6-0.4-1.2-1-1.3L27,7.8l1-1.3c0.3-0.3,0-0.9-0.4-0.9
		h-2.3l0,0H18c-1.9,0-3.8,0.8-5.2,2.1s-2.1,3.2-2.1,5.2v11.4l1.3,1l-4.4,3.2l-0.4-0.4c-1.5-1.5-1.5-3.9,0-5.4l0.5-0.5
		c1.2-1.2,1.9-2.9,1.9-4.6S8.9,14.2,7.7,13s-2.9-1.9-4.6-1.9l0,0H2.6H1.9c-1,0-1.9,0.8-1.9,1.9v4.5h0.7c1,0,1.9-0.8,1.9-1.9v-1.8H3
		l0,0c1,0,2,0.4,2.7,1.1c0.7,0.7,1.1,1.7,1.1,2.7s-0.4,2-1.1,2.7l-0.5,0.5c-2.5,2.5-2.5,6.7,0,9.2l1,1v5.8L2.7,41
		c-0.5,0.5-0.8,1.2-0.8,1.9c0,0.8,0.3,1.5,0.8,2L2.8,45L9,49.9h9.5v-3.6c0-2.2-1.8-4-4-4h-0.8l2.2-1.4l8.2,9.1h11v-3.6
		c0-2.2-1.8-4-4-4H29l-1.4-1.1v-0.1l1.9-1.5v-2.2c0-0.6-0.1-1.1-0.3-1.6L28,34.6l-0.8-0.5l2.5-1.4h7.5c1.2,0,1.7-0.7,2.3-1.6
		l2.8-3.6c0.4-0.5,0.6-1,0.6-1.6v-3.7h-3V21.9z M29.4,23.1c0-0.2,0-0.4,0-0.6h4l0.9-1.2c0.9-1.2,1.8-1.7,3-1.7h0.2v1l-3.4,4.6h-5.5
		C28.8,24.7,29.4,23.6,29.4,23.1z M23,12.1l2-2.2l4.6,1.8v3.7L29,16h-4.7L23,14.7V12.1z M14.7,9.6c0.9-0.9,2-1.4,3.3-1.4h4.9l-2,2.2
		c-0.4,0.4-0.6,0.9-0.6,1.4V15c0,0.5,0.2,1,0.6,1.4l0.1,0.1l3.8,3.3l1.2,1.1c0.5,0.5,0.8,1.2,0.7,1.9c-0.1,0.7-0.5,1.3-1.1,1.7
		L25,24.9L20,28l-6.6-5V12.9C13.3,11.6,13.8,10.5,14.7,9.6z M28,44.9h3c0.8,0,1.4,0.6,1.4,1.4v1h-7.2l-7.2-8
		c0.2-0.4,0.3-0.8,0.3-1.3v-1.3l1.2-1h2.9l0,0h2.1h0.6c0.9,0,1.6,0.7,1.6,1.6v0.9L25.6,39c-1.1,1.1-1.1,2.9,0,4l0.1,0.1L28,44.9z
		 M40.1,25.7L36.9,30H29l-5.2,3.1h-1.4l0,0h-2.9c-0.6,0-1.2,0.2-1.6,0.6l-2.2,1.8v2.4l-5,3.1c-0.5,0.4-0.9,1.1-0.9,1.8
		s0.2,1.4,0.7,1.8l0.4,0.4h3.5c0.8,0,1.4,0.6,1.4,1.4v1H9.9L4.6,43c0,0,0,0,0-0.1v-0.1l0.1-0.1l3.4-4.1c0.5-0.4,0.8-1.1,0.8-1.7v-6
		l5.3-3.9l5.6,4.3l3.6-2.1l3.4-2.1h8.8l0.9-1.2c0.9-1.2,1.9-1.3,3.1-1.3h0.3L40.1,25.7z"/>
	<path class="st0" d="M16,4.4h8.2c0.3,0,0.5-0.2,0.5-0.5V0.5c0-0.2-0.1-0.3-0.3-0.4c-0.2-0.1-0.3,0-0.5,0.1l-1.8,1.5l-1.8-1.5
		c-0.2-0.2-0.5-0.2-0.7,0L18,1.8l-1.8-1.6c-0.1-0.1-0.3-0.1-0.5-0.1c-0.2,0.1-0.3,0.2-0.3,0.4v3.4C15.5,4.2,15.7,4.4,16,4.4z"/>
</g>
</svg>
