<?xml version="1.0" encoding="utf-8"?>
<!-- Generator: Adobe Illustrator 25.2.1, SVG Export Plug-In . SVG Version: 6.00 Build 0)  -->
<svg version="1.1" id="Escudo" xmlns="http://www.w3.org/2000/svg" xmlns:xlink="http://www.w3.org/1999/xlink" x="0px" y="0px"
	 viewBox="0 0 507.6 240" style="enable-background:new 0 0 507.6 240;" xml:space="preserve">
<style type="text/css">
	.st0{fill:#FFFFFF;}
</style>
<g id="Primario">
	<path class="st0" d="M310,214.3h-7.2c-0.1,0-0.1,0-0.2,0c-0.2,0.1-0.3,0.3-0.2,0.5l1.2,2.3v22l20.5,0v-5.7H310V214.3z"/>
	<path class="st0" d="M73.8,214.3c-0.2,0-0.4,0.2-0.4,0.4c0,0,0,0.1,0,0.1l1.2,2.2v12.6l-12.9-15.4h-6.7c-0.2,0-0.4,0.2-0.4,0.4
		c0,0,0,0.1,0,0.1l1.2,2.2v22H62v-15.3L74.9,239h5.8v-24.7h-6.1H73.8z"/>
	<path class="st0" d="M117,214.2c-0.2,0.1-0.3,0.3-0.2,0.5l1.2,2v8.9v0.1c0,5.5-1.9,7.7-6.4,7.7s-6.4-2.2-6.4-7.7v-11.4h-7.2
		c-0.1,0-0.1,0-0.2,0c-0.2,0.1-0.3,0.3-0.2,0.5l1.2,2v8.9c0,8.4,4.8,13.5,12.9,13.5s12.8-5,12.8-13.5v-11.4h-7.2
		C117.1,214.2,117,214.2,117,214.2z"/>
	<path class="st0" d="M148.8,229.2h10.9v-5.6h-10.9v-3.7h15.5v-5.6h-22.8c0,0-0.1,0-0.1,0c-0.2,0.1-0.3,0.3-0.2,0.5l1.2,2.2v22
		l22.3,0v-5.6h-15.9V229.2z"/>
	<path class="st0" d="M209.2,214.3h-8l-6.7,18.3l-6.7-18.3h-8c-0.2,0-0.4,0.2-0.4,0.4c0,0.1,0,0.2,0.1,0.2l2,2.1l7.3,19.3v2.7h11.4
		v-2.7l7.3-19.3l2-2.1c0.1-0.2,0.1-0.4-0.1-0.5C209.3,214.3,209.3,214.3,209.2,214.3z"/>
	<path class="st0" d="M237,213.9c-8.7,0-15,4.9-15,12.7s6.3,12.7,15,12.7c8.7,0,15-4.9,15-12.7C252,218.8,245.7,213.9,237,213.9z
		 M237,233.6c-5.6,0-8.4-1.8-8.4-6.9s2.7-6.9,8.4-6.9c5.6,0,8.4,1.7,8.4,6.9S242.7,233.6,237,233.6z"/>
	<path class="st0" d="M347.2,229.2h10.9v-5.6h-10.9v-3.7h15.5v-5.6h-22.8c0,0-0.1,0-0.1,0c-0.2,0.1-0.3,0.3-0.2,0.5l1.2,2.2v22
		l22.3,0v-5.6h-15.9V229.2z"/>
	<path class="st0" d="M444.1,214.3c-0.2,0-0.4,0.2-0.4,0.4c0,0,0,0.1,0,0.1l1.2,2.2v12.6l-12.9-15.4h-6.7c-0.2,0-0.4,0.2-0.4,0.4
		c0,0,0,0.1,0,0.1l1.2,2.2v22h6.1v-15.3l12.9,15.3h5.8v-24.7H445H444.1z"/>
	<path class="st0" d="M394.1,214c-8.7,0-15,4.9-15,12.7s6.3,12.7,15,12.7c8.7,0,15-4.9,15-12.7C409,218.9,402.7,214,394.1,214z
		 M402.4,226.8c0,5.1-2.6,6.9-8.3,6.9s-8.4-1.7-8.4-6.9c0-5.2,2.7-6.9,8.4-6.9s8.4,1.8,8.4,6.9H402.4z"/>
	<path class="st0" d="M401.1,209.2l1.5-3.4l-8.7,0h-4.9c-0.9,0-1.8,0.5-2.1,1.4l-1.5,3.4H399C399.9,210.6,400.8,210,401.1,209.2z"/>
	<path class="st0" d="M180,2.8l-41.9,0h-5.9c-1.4,0-2.6,1.2-2.6,2.6c0,0.3,0,0.6,0.1,0.8l8.4,15.4v87.2L49,2.8H3.1
		c-1.4,0-2.6,1.1-2.6,2.6c0,0.3,0,0.6,0.1,0.8l8.4,15.4v152H51V67.6l89.1,106H180V2.8z"/>
	<path class="st0" d="M411,133.8V2.9h-49.5c-0.4,0-0.7,0-1.1,0.1c-1.3,0.4-2.1,1.8-1.7,3.2l8.2,15.9v150.8l140.1,0.1v-18.7v-20.6
		H411z"/>
	<path class="st0" d="M325.9,52.4C325.9,52.4,325.9,52.4,325.9,52.4h16.9v-2.7c0-3.8-3.1-6.9-6.9-6.9H319v2.8
		C319,49.3,322,52.4,325.9,52.4z"/>
	<path class="st0" d="M351.2,89.4v-13l-9.9,0c0.9-1.4,1.3-3,1.3-4.6V59.1h-10.2c-7.1,0-12.7,3-17.6,9.4l-0.4,0.6h-12.5
		c-0.8-1.2-1.7-2.2-2.8-3.1l-1-0.9h7.2c1.4,0,2.8-0.6,3.8-1.6l4.3-4.3c1-1,1.6-2.3,1.6-3.8V37.8c0-2.2-1.4-4-3.5-4.7l-15.3-6
		l3.6-4.7c0.6-0.8,0.5-1.9-0.3-2.6c-0.3-0.3-0.7-0.4-1.1-0.4H265c-14,0-25.4,11.4-25.3,25.4v39.7l4.6,3.5l-15.3,11.2l-1.5-1.6
		c-5.2-5.2-5.2-13.6,0-18.8l1.6-1.6c8.8-8.9,8.8-23.2-0.1-32c-4.2-4.2-10-6.6-15.9-6.6h-4c-3.5,0.1-6.4,2.9-6.4,6.4V61h2.6
		c3.6,0,6.4-2.9,6.5-6.4c0,0,0,0,0,0v-6.4h1.4c7.3,0,13.3,5.9,13.3,13.3c0,3.5-1.4,6.9-3.9,9.4l-1.6,1.6c-8.8,8.8-8.8,23.1,0,32
		l3.4,3.3v20.2l-12.3,14.6c-3.7,3.8-3.6,9.9,0.1,13.7l0.4,0.3l21.4,17.2h33.1V161c0-7.8-6.3-14-14.1-14.1h-2.7l7.7-4.8l28.4,31.5
		h38.3V161c0-7.8-6.3-14-14.1-14.1h-7.3l-4.7-3.8c-0.1-0.1-0.1-0.3,0-0.5l6.5-5v-7.5c0-2-0.4-3.9-1.1-5.7l-4.2-4.5l-2.8-1.7l8.5-5
		h26c4.3,0,5.8-2.3,8-5.6l9.7-12.4C350.5,93.5,351.2,91.5,351.2,89.4z M304.9,80.4c0-0.7,0-1.4,0-2.1h14l3.3-4.1
		c3.2-4.1,6.2-5.8,10.3-5.8h0.8v3.3l-11.9,16h-19.2C303.3,85.4,304.2,82.9,304.9,80.4z M282.6,42.3l7-7.7l16.1,6.3v12.8l-2,2.1
		h-16.3l-4.8-4.2L282.6,42.3z M249,44.8c0-4.2,1.7-8.3,4.6-11.2l0,0c3-3,7.1-4.7,11.3-4.7h17.2l-7,7.8c-1.2,1.3-1.9,3-1.9,4.8v11.1
		c0,1.8,0.7,3.6,2,4.9l0.2,0.2l13.2,11.4l4.2,3.7c3.2,2.8,3.5,7.7,0.7,10.9c-0.6,0.7-1.2,1.2-2,1.6l-2.5,1.4L272,97.6l-23-17.7V44.8
		z M299.9,156.3h10.5c2.6,0,4.7,2.1,4.7,4.7v3.3h-24.9l-25.1-27.8c0.8-1.3,1.2-2.8,1.2-4.3v-4.5l4.2-3.3h19.3c3.2,0,5.7,2.6,5.7,5.7
		v3l-3.7,2.9c-3.8,3.8-3.8,10,0,13.8l0.4,0.3L299.9,156.3z M341.8,89.3l-10.9,15.3h-27.4l-18.1,10.6l-4.9-0.2h-10.1
		c-2.1,0-4.1,0.7-5.7,2l-7.6,6.1v8.3l-17.3,10.9c-3.6,2.9-4.2,8.1-1.3,11.7c0.2,0.3,0.4,0.5,0.7,0.8l1.4,1.3h12.3
		c2.6,0,4.7,2.1,4.7,4.7v3.3h-20.5l-18.5-14.9c0-0.1,0-0.2,0-0.2c0-0.1,0-0.2,0.1-0.3l0.3-0.3l12-14.2c1.7-1.5,2.6-3.7,2.6-6v-20.9
		L252,93.9l19.6,15l12.6-7.2l12-7.3l30.7,0.1l3.3-4.3c3.3-4.2,6.5-4.6,10.8-4.6h1L341.8,89.3z"/>
	<path class="st0" d="M257.9,15.5c0.1,0,0.1,0,0.2,0h28.4c0.9,0,1.6-0.7,1.6-1.6c0,0,0-0.1,0-0.1V2.1c0-0.6-0.3-1.1-0.9-1.4
		c-0.5-0.3-1.2-0.2-1.6,0.2l-6.2,5.2l-6.1-5.2c-0.7-0.6-1.6-0.6-2.3,0l-6,5.4l-6.3-5.5c-0.5-0.4-1.1-0.5-1.6-0.2
		c-0.5,0.2-0.9,0.8-0.9,1.4v11.7C256.2,14.7,257,15.5,257.9,15.5z"/>
</g>
</svg>
